<svg id="Layer_1" data-name="Layer 1" xmlns="http://www.w3.org/2000/svg" viewBox="0 0 830.08 314.3">
  <defs>
    <style>
      .cls-1 {
        fill: #2d2e83;
      }

      .cls-2 {
        fill: #1fc2d7;
      }

      .cls-3 {
        fill: #0d0d27;
      }
    </style>
  </defs>
  <title>Unbound_FC</title>
  <g>
    <g>
      <path class="cls-1" d="M168.33,87.32v86.42l-29.49,17a1.9,1.9,0,0,1-1.9,0l-29.49-17V87.32L86.52,99.41a11.41,11.41,0,0,0-5.71,9.88v86.42a11.4,11.4,0,0,0,5.71,9.88L132.18,232a11.4,11.4,0,0,0,11.41,0l45.66-26.37a11.38,11.38,0,0,0,5.71-9.88V109.29a11.39,11.39,0,0,0-5.71-9.88Z"/>
      <path class="cls-2" d="M195,109.29a11.39,11.39,0,0,0-5.71-9.88L158.81,81.83a7.61,7.61,0,0,0-11.41,6.59v66.65a11.38,11.38,0,0,0,5.71,9.88l36.14,20.87a11.41,11.41,0,0,1,5.71,9.89Z"/>
      <path class="cls-2" d="M80.81,109.29a11.41,11.41,0,0,1,5.71-9.88L117,81.83a7.61,7.61,0,0,1,11.41,6.59v66.65a11.39,11.39,0,0,1-5.7,9.88L86.52,185.82a11.43,11.43,0,0,0-5.71,9.89Z"/>
    </g>
    <g>
      <path class="cls-3" d="M302.69,125.1v64H291.16l-.6-5C283,188,275,190.6,268,190.57c-10.77,0-18.67-6.11-18.65-21.26V125.13h12.82v42.38c0,9.12,3.36,11.84,9.29,11.81,4.83,0,11.54-2,18.44-5.54V125.1Z"/>
      <path class="cls-3" d="M377.7,144.94v44.21H364.88V146.74c0-9.14-3.54-11.81-9.82-11.81-5.49,0-12.94,2-20.89,5.66v48.56H321.34v-64h11.52l.62,5.14c8.7-4.08,17.46-6.59,24.78-6.59C369.65,123.68,377.7,129.74,377.7,144.94Z"/>
      <path class="cls-3" d="M430.53,123.68c19.35,0,24.54,12.85,24.56,33.55s-5.21,33.37-24.52,33.37c-7.1,0-12.79-1.71-21.9-6.82l-.64,5.37H396.51V98.53h12.82v31.6c8.57-4.74,14.13-6.45,21.19-6.45ZM427,179.35c11.82,0,14.94-6.32,15-22.22s-3.14-22.2-14.92-22.2c-5,0-9.08,1.13-17.68,5.86v32.7c8.71,4.78,12.74,5.86,17.64,5.86Z"/>
      <path class="cls-3" d="M529.43,157.15c0,21.25-7.15,33.45-29.82,33.45s-29.81-12.2-29.81-33.45,7.15-33.46,29.81-33.46S529.43,135.89,529.43,157.15Zm-46.44,0c0,16,3.8,22.18,16.62,22.18s16.63-6.22,16.63-22.18-3.8-22.21-16.63-22.21S483,141.15,483,157.15Z"/>
      <path class="cls-3" d="M599,125.1v64H587.51l-.6-5c-7.56,3.87-15.56,6.52-22.61,6.49-10.77,0-18.66-6.11-18.64-21.26V125.13h12.82v42.38c0,9.12,3.36,11.84,9.29,11.81,4.83,0,11.54-2,18.44-5.54V125.1Z"/>
      <path class="cls-3" d="M674.05,144.94v44.21H661.23V146.74c0-9.14-3.54-11.81-9.82-11.81-5.49,0-12.95,2-20.89,5.66v48.56H617.69v-64h11.52l.61,5.14c8.71-4.08,17.47-6.59,24.79-6.59C666,123.68,674.05,129.74,674.05,144.94Z"/>
      <path class="cls-3" d="M737.75,189.15l-.64-5.37c-9,5-14.65,6.82-21.93,6.82-19.26,0-24.5-12.67-24.5-33.37s5.24-33.55,24.54-33.55c7.06,0,12.65,1.71,21.22,6.45V98.53h12.82v90.62Zm-33.91-32c0,15.89,3.16,22.21,15,22.21,5,0,9-1.11,17.62-5.86v-32.7c-8.77-4.81-12.78-5.86-17.58-5.86-11.86,0-15,6.31-15,22.21Z"/>
    </g>
  </g>
</svg>
