<?xml version="1.0" encoding="UTF-8" standalone="no"?>
<!DOCTYPE svg PUBLIC "-//W3C//DTD SVG 1.1//EN" "http://www.w3.org/Graphics/SVG/1.1/DTD/svg11.dtd">
<svg width="669px" height="153px" version="1.1" xmlns="http://www.w3.org/2000/svg" xmlns:xlink="http://www.w3.org/1999/xlink" xml:space="preserve" xmlns:serif="http://www.serif.com/" style="fill-rule:evenodd;clip-rule:evenodd;stroke-linejoin:round;stroke-miterlimit:2;">
    <g>
        <path d="M87.52,6.507L87.52,92.927L58.03,109.927C57.443,110.266 56.717,110.266 56.13,109.927L26.64,92.927L26.64,6.507L5.71,18.597C2.183,20.631 0.002,24.405 0,28.477L0,114.897C-0.001,118.969 2.181,122.744 5.71,124.777L51.37,151.187C54.895,153.224 59.255,153.224 62.78,151.187L108.44,124.817C111.972,122.787 114.155,119.01 114.15,114.937L114.15,28.477C114.153,24.404 111.97,20.628 108.44,18.597L87.52,6.507Z" style="fill:white;fill-opacity:0.6;fill-rule:nonzero;"/>
        <path d="M114.19,28.477C114.193,24.404 112.01,20.628 108.48,18.597L78,1.017C76.844,0.351 75.534,0 74.2,0C70.027,0 66.592,3.433 66.59,7.607L66.59,74.257C66.585,78.33 68.768,82.107 72.3,84.137L108.44,105.007C111.97,107.043 114.152,110.821 114.15,114.897L114.19,28.477Z" style="fill:white;fill-rule:nonzero;"/>
        <path d="M0,28.477C0.002,24.405 2.183,20.631 5.71,18.597L36.19,1.017C37.346,0.351 38.656,0 39.99,0C44.163,0 47.598,3.433 47.6,7.607L47.6,74.257C47.605,78.328 45.427,82.103 41.9,84.137L5.71,105.007C2.183,107.046 0.002,110.822 0,114.897L0,28.477Z" style="fill:white;fill-rule:nonzero;"/>
    </g>
    <g>
        <path d="M221.88,44.287L221.88,108.287L210.35,108.287L209.75,103.287C202.19,107.187 194.19,109.787 187.19,109.757C176.42,109.757 168.52,103.647 168.54,88.497L168.54,44.317L181.36,44.317L181.36,86.697C181.36,95.817 184.72,98.537 190.65,98.507C195.48,98.507 202.19,96.507 209.09,92.967L209.09,44.287L221.88,44.287Z" style="fill:white;fill-rule:nonzero;"/>
        <path d="M296.89,64.127L296.89,108.337L284.07,108.337L284.07,65.927C284.07,56.787 280.53,54.117 274.25,54.117C268.76,54.117 261.31,56.117 253.36,59.777L253.36,108.337L240.53,108.337L240.53,44.337L252.05,44.337L252.67,49.477C261.37,45.397 270.13,42.887 277.45,42.887C288.84,42.867 296.89,48.927 296.89,64.127Z" style="fill:white;fill-rule:nonzero;"/>
        <path d="M349.72,42.867C369.07,42.867 374.26,55.717 374.28,76.417C374.3,97.117 369.07,109.787 349.76,109.787C342.66,109.787 336.97,108.077 327.86,102.967L327.22,108.337L315.7,108.337L315.7,17.717L328.52,17.717L328.52,49.317C337.09,44.577 342.65,42.867 349.71,42.867L349.72,42.867ZM346.19,98.537C358.01,98.537 361.13,92.217 361.19,76.317C361.25,60.417 358.05,54.117 346.27,54.117C341.27,54.117 337.19,55.247 328.59,59.977L328.59,92.677C337.3,97.457 341.33,98.537 346.23,98.537L346.19,98.537Z" style="fill:white;fill-rule:nonzero;"/>
        <path d="M448.62,76.337C448.62,97.587 441.47,109.787 418.8,109.787C396.13,109.787 388.99,97.587 388.99,76.337C388.99,55.087 396.14,42.877 418.8,42.877C441.46,42.877 448.62,55.077 448.62,76.337ZM402.18,76.337C402.18,92.337 405.98,98.517 418.8,98.517C431.62,98.517 435.43,92.297 435.43,76.337C435.43,60.377 431.63,54.127 418.8,54.127C405.97,54.127 402.19,60.337 402.19,76.337L402.18,76.337Z" style="fill:white;fill-rule:nonzero;"/>
        <path d="M518.19,44.287L518.19,108.287L506.7,108.287L506.1,103.287C498.54,107.157 490.54,109.807 483.49,109.777C472.72,109.777 464.83,103.667 464.85,88.517L464.85,44.317L477.67,44.317L477.67,86.697C477.67,95.817 481.03,98.537 486.96,98.507C491.79,98.507 498.5,96.507 505.4,92.967L505.4,44.287L518.19,44.287Z" style="fill:white;fill-rule:nonzero;"/>
        <path d="M593.24,64.127L593.24,108.337L580.42,108.337L580.42,65.927C580.42,56.787 576.88,54.117 570.6,54.117C565.11,54.117 557.65,56.117 549.71,59.777L549.71,108.337L536.88,108.337L536.88,44.337L548.4,44.337L549.01,49.477C557.72,45.397 566.48,42.887 573.8,42.887C585.19,42.867 593.24,48.927 593.24,64.127Z" style="fill:white;fill-rule:nonzero;"/>
        <path d="M656.94,108.337L656.3,102.967C647.3,107.967 641.65,109.787 634.37,109.787C615.11,109.787 609.87,97.117 609.87,76.417C609.87,55.717 615.11,42.867 634.41,42.867C641.47,42.867 647.06,44.577 655.63,49.317L655.63,17.717L668.45,17.717L668.45,108.337L656.94,108.337ZM623.03,76.337C623.03,92.227 626.19,98.547 638.03,98.547C643.03,98.547 647.03,97.437 655.65,92.687L655.65,59.987C646.88,55.177 642.87,54.127 638.07,54.127C626.21,54.127 623.07,60.437 623.07,76.337L623.03,76.337Z" style="fill:white;fill-rule:nonzero;"/>
    </g>
</svg>
